<?xml version="1.0" encoding="utf-8"?>
<!-- Generator: Adobe Illustrator 27.0.0, SVG Export Plug-In . SVG Version: 6.00 Build 0)  -->
<svg version="1.1" id="Layer_1" xmlns="http://www.w3.org/2000/svg" xmlns:xlink="http://www.w3.org/1999/xlink" x="0px" y="0px"
	 viewBox="0 0 512 512" style="enable-background:new 0 0 512 512;" xml:space="preserve">
<style type="text/css">
	.st0{fill:#FFFFFF;}
	.st1{fill:#DF173B;}
	.st2{fill:#333E48;}
</style>
<g id="XMLID_1_">
	<path id="XMLID_20_" class="st0" d="M114.85,197.05c-4.7-4.01-8.58-5.12-14.81-5.12H3.6l63.1,123.43c2.49,4.7,5.67,6.78,10.1,6.78
		h82.34c3.87,0,6.09-1.94,7.61-5.4l11.21-25.18l13.42-29.89L114.85,197.05z"/>
	<path class="st1" d="M115.13,193.87c-4.98-4.15-8.86-5.26-15.36-5.26H0l65.31,127.86c2.49,4.98,5.81,6.92,10.52,6.92h85.24
		c4.01,0,6.37-2.08,7.89-5.67l11.62-26.02l13.84-31L115.13,193.87z M131.74,229.29c0.69-0.14,1.25-0.14,1.94-0.14
		c0.97,0.14,0.97,1.38,0.69,2.08c-0.42,1.11-1.66,2.49-2.63,3.18c-0.42,0.28-0.97,0-1.38,0.14c-0.83,0-1.25-0.83-1.52-1.38
		c0.28,0.83-0.55-1.25,0,0C128.14,231.92,130.35,229.43,131.74,229.29z M125.51,256.83c0-1.38,0.42-2.63,0.42-4.01
		c0-2.21,0.42-4.29,0.69-6.5c0.14-1.25,0.28-2.91,0.97-4.01c0.55-0.97,0.97-1.8,2.08-2.21c0.42-0.14,1.11-0.28,1.52-0.14
		c0.97,0.14,0.28,0.83,0.69,1.25c0,0,0.14-0.14,0.14,0c0,0.14,0,0.28,0,0.42c0.42,0,0,0.69,0,0.97c0.14,0.83,0,1.52-0.42,2.21
		c0.14,0,0.14,0,0.28,0c0,0,0,0.28-0.14,0.28c-0.28,0.14-0.28,0.28-0.14,0.83c0,0.28,0.14,0.97,0,1.11c0,0,0,0.83,0,0.97
		c0,0.14,0,1.52,0,1.52s0.14,0,0.14-0.14c0,0,0.14,1.66,0,1.8c-0.14,0.14-0.42,0.42-0.28,0.69c0,0.14,0.42,0.97,0.28,1.11
		c-0.14,0.14-0.28-0.28-0.28-0.28c-0.14,0,0.28,0.69,0.28,0.83c-0.14,0.14-0.42-0.42-0.55,0c-0.14,0.55,0,1.11,0,1.52
		c0,0.42,0,0.83,0,1.25c0,0.69,0.28,1.66-0.14,2.35c-0.83,1.66-4.29,4.15-5.54,1.66c0.14,0.28,0.42,0.69,0,0c-0.14-0.14,0-0.14,0,0
		C124.82,259.18,125.37,257.8,125.51,256.83z M97.97,254.89c0-0.28,1.8-0.83,2.08-0.97c0.42-0.14,0.83,0,1.25,0
		c0.83,0.14,0.69,0.55,0.97,1.11c0.28,0.69,0.28,0.83,0.14,1.52c-0.14,0.69-0.28,1.25-0.97,1.52c-0.69,0.55-1.38,1.11-2.08,1.66
		c-0.69,0.55-1.25,1.25-1.66,2.08c-0.28,0.42-0.28,0.97-0.42,1.38c-0.42,1.11-0.42,2.21-0.55,3.32c-0.28,2.35,0,4.84-0.42,7.2
		c-0.28,1.94-2.35,4.29-4.43,4.15c-1.66-0.14-1.66-2.21-1.66-3.46c0-0.69,0.14-1.38,0.28-2.21c0.14-0.83-0.14-1.25,0-2.08
		c0.14-0.42-0.14-0.97,0-1.52c0-0.28,0-0.55,0.14-0.83c0.28-0.97,0.28-1.94,0.28-2.91c0.14-2.21,0-4.43,0.55-6.5
		c0.28-0.97,0.97-1.66,1.8-2.21c0.42-0.28,1.52-0.28,1.66-0.69c0.97,0.28,2.35-0.69,3.18-0.83
		C98.11,254.89,98.11,254.89,97.97,254.89z M74.45,268.59c-0.14,0.42-0.28,0.69-0.42,1.11c0,0.42,0.14,0.69-0.14,1.25
		c-0.14,0.42-0.28,0.69-0.28,1.11c0,0.83-0.42,1.66-0.42,2.49c0,0.28-0.14,0.83,0,1.11c0.14,0.28,0.42,0.42,0.28,0.69
		c-0.14,0.97-0.69,1.8-0.83,2.63c-0.14,0.55-0.42,1.8-0.14,2.35c0.28,0.42-0.28,1.52-0.42,2.08c-0.42,1.38-0.69,3.18-0.69,4.57
		c-0.14,1.8-0.55,3.6-0.69,5.4c-0.14,2.35-0.42,4.98-0.97,7.33c-0.28,0.97-0.55,2.08-1.52,2.63c-0.83,0.55-2.21,0.55-2.91-0.28
		c-0.97-1.25-1.11-3.18-1.38-4.7c-0.42-1.94-0.55-3.87-0.97-5.81c-0.14-0.69,0-1.94-0.55-2.49c-0.14-0.14-0.28-1.25-0.28-1.52
		c0-0.55,0.14-0.97,0-1.52c-0.14-0.55-0.28-0.97-0.42-1.52c-0.42-1.66-0.69-3.6-0.83-5.4c-0.14-1.66-0.55-3.32-0.69-5.12
		c-0.14-1.94-0.69-3.87-0.83-5.81c-0.14-1.66-0.14-3.46-0.83-4.98c-0.14-0.42-0.42-0.83-0.42-1.38c0-0.14,0.14-0.69,0.14-0.83
		c-0.14-0.28-0.42,0.14-0.55-0.28c-0.14-1.38-1.52,0.42-1.38,0.97c-0.42-0.42-0.42,0.42-0.42,0.69c0,0.42-0.42,0.83-0.69,1.25
		c-0.55,1.38-0.83,3.04-1.38,4.43c-0.55,1.25-0.97,2.63-2.08,3.46c-1.11,0.83-2.77,0.55-3.46-0.69c-0.69-1.38,0.28-2.91,0.69-4.15
		c0.55-1.52,0.83-3.18,1.52-4.57c0.69-1.38,1.11-3.18,1.66-4.7c0.83-2.63,1.8-5.4,2.63-8.03c0.69-2.21,2.08-5.67,4.98-4.01
		c1.38,0.83,1.52,2.35,1.8,3.87c0.28,1.66,0.55,3.46,0.83,5.12c0.42,2.21,0.83,4.15,0.97,6.37c0.14,0.97,0.42,1.94,0.69,2.91
		c0.28,0.83,0.28,1.66,0.55,2.35c0.14,0.42,0.14,1.11,0.28,1.52c0.14,0.83,0.28,1.66,0.55,2.49c0.28,0.83-0.28,1.66,0,2.49
		c0.28,0.69,0.69,1.66,0.55,2.35c-0.14,0.69,0.14,1.25,0.14,1.94c0,0.55,0.42,0.97,0.28,1.66c-0.14,0.69,0.55,0.69,0.83,0
		c0.14-0.55,0.14-1.11,0.14-1.66c0-1.52,0.28-3.04,0.55-4.57c0.83-4.15,1.38-8.3,2.21-12.32c1.52-7.89,3.87-15.5,5.95-23.25
		c0.42-1.66,1.25-3.32,1.8-4.98c0.69-1.94,1.38-3.87,2.08-5.81c1.52-4.01,3.04-8.16,4.57-12.18c1.11-2.77,2.49-6.5,6.09-6.78
		c3.04-0.14,5.26,3.04,4.43,5.81c-0.28,0.69-0.83,1.25-1.11,1.94c-0.14,0.14-0.14,0.42-0.14,0.55c-0.14,0.42-0.28,0.28-0.55,0.55
		c-1.11,0.97-2.35,2.08-3.18,3.32c-1.8,2.77-2.77,5.81-4.15,8.72c-0.42,0.83-0.42,1.8-0.83,2.63c-0.28,0.69-0.83,1.38-0.97,2.08
		c-0.42,1.66-1.25,3.18-1.8,4.84c-0.28,0.97-0.28,2.08-0.83,3.04c-0.14,0.28,0,0.69-0.14,0.97c-0.28,0.14-0.28,0.55-0.42,0.83
		c-0.42,1.52-1.11,3.18-1.25,4.84c0,0.97-0.28,1.38-0.69,2.21c-0.42,0.55-0.42,1.38-0.69,1.94c-0.69,1.66-1.25,3.46-1.66,5.12
		c-0.28,0.83-0.42,1.8-0.55,2.77c-0.14,0.83-0.42,1.52-0.42,2.35s-0.28,1.25-0.55,1.94c-0.28,0.69,0,1.38-0.14,2.08
		c0.14-0.14,0.14-0.14-0.14,0.28C74.31,267.76,74.59,268.18,74.45,268.59z M86.35,264.16c0.28,0.83-0.42,2.08-0.28,2.91
		c0,0.97-0.28,1.94-0.28,2.77c-0.14,1.11-0.28,2.21-0.42,3.32c-0.14,1.11-0.14,2.08-0.28,3.18c-0.14,0.97,0,2.08-0.28,3.04
		c-0.14,0.69-0.42,1.38-0.42,2.08c0,0.28,0.28,0,0.42,0.14c0.28,0.14-0.28,0.97-0.42,0.42c-0.14,0.14,0,0.42-0.14,0.42
		c-0.28,0.14-0.42,0-0.69,0.42c-0.42,0.55-1.38,1.11-2.08,1.38c-2.08,0.97-2.08-1.94-2.21-3.04c-0.14-2.63,0.55-5.54,0.42-8.16
		c0-0.69,0.14-1.38,0.28-2.08c0.14-0.69,0-1.11,0-1.8c0-1.38,0.14-3.32,0.69-4.43c0.69-1.66,1.8-3.18,3.6-3.74
		c0.55-0.14,1.52-0.14,1.8,0.42c0.14,0.28,0.14,1.66,0.69,1.66l0,0c-0.14,0-0.42,0-0.42,0.28
		C86.07,263.47,86.35,263.75,86.35,264.16z M84.96,253.65c-0.28,0-1.52,0.14-1.52-0.42c0-0.28-0.42-0.55-0.42-1.11
		c0-0.42,0.14-0.97,0.28-1.38c0.42-1.25,1.25-1.52,2.08-2.35c0.55-0.42,1.94-1.38,2.77-0.83c0.42,0.28,1.11,1.52,0.83,1.94
		c0,0,0.28-0.42,0,0c-0.28,0.42-0.28,0.97-0.55,1.38c-0.42,0.69-0.97,0.97-1.52,1.38C86.35,252.82,85.79,253.51,84.96,253.65z
		 M164.39,251.85c-1.52,0.97-3.32,1.52-4.98,2.08c-3.74,1.25-7.2,2.77-10.66,4.57s-7.06,3.6-10.52,5.54
		c-3.18,1.94-6.23,3.74-9.41,5.54c-1.38,0.83-2.49,1.8-3.87,2.63c-0.83,0.42-1.66,0.97-2.35,1.52c-0.55,0.55-1.52,0.97-1.94,1.52
		c-0.97,1.11,0,2.49-0.55,3.6c-0.14,0.42,0,0.28,0.14,0.42c0.14,0.28-0.14,0.55-0.14,0.83c-0.14,0.69,0,1.94,0,2.63
		c0,0.55,0.14,1.25,0.14,1.8c0,0.55-0.42,1.25,0,1.8c0.14,0.83-0.28,1.52-0.14,2.35c0,0.83,0.14,1.66,0.14,2.49
		c0,0.42,0,0.83,0.14,1.25c-0.14,0.14-0.42,0.28-0.42,0.42c-0.28,0.55,0.28,0.55,0.42,0.83c-0.14,0.14-0.14,0.14-0.42,0.14
		c0.28,0.42,0.42,0.83,0.28,1.25c-0.14,0.28-0.42,0.55-0.14,0.83c-0.14,0.28,0.42,0.55,0.28,0.83c-0.14,0.28-0.28,0.42-0.42,0.55
		c-0.14,0.42,0.55,0.55,0.14,0.83c-0.28,0.28,0,0.42,0.14,0.69c0.28,0.42-0.14,0.42-0.14,0.83c0.14,0.83,0.69,1.52,0.55,2.35
		c0,0.83-0.69,1.52,0.14,2.08c0.42,0.28,0.83,2.49,0,2.21c0.42,0.14,0,0.69,0,0.97c0.14,0.42,0.97,0.42,0.97,0.97
		c0,0.28-0.28,0.55-0.55,0.55c0.14,0.28,0.14,0.55,0.28,0.83c0.14,0.42,0.55,0.83,0.28,1.25c-0.14,0.14-0.28,0.14-0.28,0.42
		c0.14,0.55-0.14,0.28-0.28,0.83c-0.28,0.69-1.11,1.25-1.8,1.52c-1.66,0.69-3.46-0.14-4.29-1.66c-0.83-1.52-0.55-3.6-0.55-5.26
		c0.14-2.21,0.28-4.43,0.28-6.64c0-3.6,0.28-7.2,0.14-10.66c0-2.08,0-4.15,0-6.09c0-0.97,0-2.08,0-3.04c0-0.28,0.28-1.25-0.28-0.97
		c-1.66,0.55-3.18,2.21-4.57,3.32c-4.29,3.6-8.58,7.2-13.01,10.52c-1.38,1.11-2.63,2.35-3.87,3.6c-1.38,1.38-2.91,2.49-4.15,3.87
		c-1.25,1.38-2.35,2.63-3.6,3.87c-1.25,1.38-2.49,3.04-4.01,4.15c-0.55,0.42-1.11,0.97-1.66,1.38c-0.42,0.55-1.52,0.55-2.21,0.55
		c-1.52-0.28-2.91-1.66-2.77-3.18c0.14-1.52,1.38-2.63,2.35-3.6c1.38-1.38,2.91-2.91,4.43-4.29c5.81-5.26,11.9-10.38,17.99-15.22
		c3.18-2.49,6.5-4.7,9.69-7.2c1.66-1.25,3.18-2.49,4.98-3.74c0.97-0.69,0.83-2.08,0.83-3.18c0-0.83-1.66,0.28-1.94,0.69
		c-0.28,0.28-1.52,0.69-1.94,0.69c-0.97,0.14-2.08,0.42-3.04,0.42c-0.97-0.14-2.91-0.83-3.18-1.8c-0.28-0.83-0.69-1.8-0.69-2.77
		s0.14-1.8,0.14-2.77c0-0.83-0.28-1.52-0.28-2.35c0-0.97,0.28-1.8,0.28-2.77c0.14-1.8,0.28-3.6,1.11-5.26
		c1.11-2.91,3.04-5.67,6.09-6.78c1.38-0.55,2.91-0.28,2.49,1.38c-0.28,1.38-1.25,2.08-1.94,3.18c0,0.28-0.42,0.55-0.55,0.83
		c-0.28,0.42-0.42,0.69-0.55,1.11c-0.28,0.69-0.55,1.25-0.69,1.94c-0.14,0.55-0.42,1.11-0.55,1.8c-0.14,0.83,0,1.52,0,2.35
		c-0.14,1.52-0.97,4.57,0.42,5.81c0.97,0.69,2.35,0.14,3.18-0.55c0.97-0.97,1.52-2.35,1.52-3.6c0.14-2.21,0.69-4.43,0.83-6.64
		c0-2.21,0.28-4.43,0.42-6.64c0.14-1.8,0.69-3.46,2.63-4.01c1.94-0.55,3.04,0.83,3.04,2.63c0,3.04-0.55,6.23-0.69,9.27
		c-0.28,4.43-0.69,8.58-0.69,13.01c0.42,0.28,3.74-2.21,4.15-2.49c2.21-1.52,4.57-2.91,6.78-4.29c3.46-1.66,6.64-3.87,10.1-5.67
		c1.66-0.83,3.32-1.94,5.12-2.91c0.42-0.28,3.74-1.66,2.77-2.35c-1.38-0.83-1.11-2.91-0.97-4.15c0.14-1.66,0-3.46,0.14-5.12
		c0-1.52,1.66-7.06-1.66-6.09c-0.69,0.14-1.11,0.69-1.66,1.11c-0.42,0.42-0.55,1.25-1.38,1.25c-0.28,0.42,0.14,0.42-0.42,0.97
		c0.14,0.42-0.28,1.38-0.42,1.8c0,0.28,0.14,0.55-0.14,0.69c-0.28,0.14-0.28,0.28,0,0.55c0.42,0.42-0.42,0.28-0.28,0.83
		c0.28,0.69,0.14,0.83-0.14,1.38c-0.28,0.55,0.28,0.97,0.28,1.52l-0.42-0.14c-0.14,0.69-0.28,1.8-0.14,2.49
		c0.14,0.28,0.28,0.55,0.14,0.69c-0.14,0.14-0.28,0.42-0.14,0.69c0.14,0.28,0.42,0.42,0.28,0.69c-0.14,0.14-0.42,0.55-0.28,0.69
		c0.14,0.28,0,0.69,0,0.97s-0.42,0.42-0.42,0.69c-0.14,0.55-0.14,0.83-0.69,1.25c-0.42,0.28-0.69,0.55-1.11,0.83
		c-0.83,0.42-2.21,0.83-3.04,0c-1.11-0.97-0.55-3.32-0.42-4.57c0.14-2.21,0.28-4.29,0.28-6.5c0.14-3.04-0.42-7.61,2.91-9.13
		c1.25-0.55,2.63-0.69,4.01-0.42c1.25,0.55,2.49-1.11,3.18-1.8c1.38-1.66,5.54-4.29,7.06-1.38c0.28,0.55,0.42,1.25,0.55,1.8
		c0.14,0.28,0.14,0.69,0.28,0.97c-0.28,0.14-0.42,0.42-0.42,0.69c0,0.28,0.69,2.35,0.42,2.63c-0.55,0.42-0.28,0.83-0.28,1.38
		c0,0.69-0.42,1.8,0,2.49c0.28,0.28,0,0.42-0.14,0.83c-0.14,0.42,0.28,0.83,0.28,1.25c0,0.69,0.14,1.8-0.14,2.49
		c0,0.42,0.55,0.97,0.28,1.25c-0.28,0.28,0.55,0.97,0.69,1.25c0.69,0.97,3.6-0.83,4.29-1.25c1.52-0.83,3.18-1.94,4.84-1.8
		c1.8,0.14,2.21,0.55,2.91,2.21C166.75,249.63,165.5,251.16,164.39,251.85z"/>
	<g id="XMLID_2_">
		<rect id="XMLID_11_" x="410.71" y="270.25" class="st2" width="4.7" height="48.57"/>
		<rect id="XMLID_10_" x="410.71" y="257.94" class="st2" width="4.7" height="5.67"/>
		<path id="XMLID_9_" class="st2" d="M302.77,269.01c-9.13,0-14.39,4.98-17.57,10.52c-2.63-5.67-7.89-10.52-16.33-10.52
			c-8.72,0-13.01,4.7-16.19,9.82v-8.72h-4.7v48.57h4.7v-27.95c0-9.82,6.92-17.44,15.5-17.44c8.72,0,14.25,6.23,14.25,16.33v29.2h4.7
			v-28.23c0-10.79,7.2-17.16,15.36-17.16c8.99,0,14.39,6.09,14.39,16.61v28.92h4.7v-29.47
			C321.45,277.17,314.26,269.01,302.77,269.01z"/>
		<path class="st2" d="M349.96,269.01c-13.15,0-23.11,11.21-23.11,25.32v0.14c0,15.08,11.07,25.32,23.8,25.32
			c9.27,0,15.08-3.87,20.06-9.13l-3.18-2.91c-4.01,4.29-9.13,7.61-16.61,7.61c-9.55,0-18.13-7.06-19.1-19.1h40.27
			c0.14-0.83,0.14-1.11,0.14-1.94C372.24,280.08,363.52,269.01,349.96,269.01z M331.83,292.26c0.83-10.79,8.3-18.82,17.85-18.82
			c11.21,0,16.74,8.99,17.44,18.82H331.83z"/>
		<path id="XMLID_6_" class="st2" d="M382.48,283.95v-13.84h-4.7v48.57h4.7V298.9c0-15.78,9.82-24.35,21.03-24.35h0.42v-5.12
			C394.38,269.01,386.21,275.37,382.48,283.95z"/>
		<path id="XMLID_5_" class="st2" d="M447.1,315.5c-11.21,0-20.06-9.27-20.06-21.03v-0.14c0-11.62,8.58-20.9,19.65-20.9
			c7.2,0,12.04,3.74,16.19,8.03l3.32-3.46c-4.57-4.7-10.24-8.99-19.37-8.99c-13.84,0-24.77,11.76-24.77,25.46v0.14
			c0,13.56,10.79,25.18,24.77,25.18c8.99,0,14.81-4.01,19.79-9.69l-3.18-2.91C459.28,312.04,453.88,315.5,447.1,315.5z"/>
		<path class="st2" d="M507.02,274.82c-3.46-3.46-8.72-5.4-15.36-5.4c-6.64,0-11.9,1.66-17.3,4.15l1.66,4.15
			c4.43-2.35,9.27-3.87,15.22-3.87c9.96,0,16.05,4.98,16.05,14.81h-16.05c-12.59,0-21.17,5.67-21.17,15.78v0.14
			c0,10.1,9.69,15.22,18.82,15.22c9.27,0,15.22-4.57,18.54-9.27v8.16H512v-30.3C512,282.43,510.34,278,507.02,274.82z
			 M507.57,300.56c0,8.86-8.44,14.94-18.4,14.94c-7.47,0-14.11-4.15-14.11-11.21v-0.14c0-6.78,5.67-11.35,16.05-11.35h16.47V300.56
			L507.57,300.56z"/>
		<path class="st2" d="M220.99,269.42c-6.64,0-11.9,1.66-17.3,4.15l1.66,4.15c4.43-2.35,9.27-3.87,15.22-3.87
			c9.96,0,16.05,4.98,16.05,14.81h-16.05c-12.59,0-21.17,5.67-21.17,15.78v0.14c0,10.1,9.69,15.22,18.82,15.22
			c9.27,0,15.22-4.57,18.54-9.27v8.16h4.57v-30.3c0-5.95-1.66-10.52-4.98-13.7C232.75,271.22,227.49,269.42,220.99,269.42z
			 M236.77,300.56c0,8.86-8.44,14.94-18.4,14.94c-7.47,0-14.11-4.15-14.11-11.21v-0.14c0-6.78,5.67-11.35,16.05-11.35h16.47V300.56
			L236.77,300.56z"/>
	</g>
</g>
</svg>
